<svg width="6" height="5" viewBox="0 0 6 5" fill="none" xmlns="http://www.w3.org/2000/svg">
<path d="M0 3.90909H1.09091V5H0V3.90909ZM0 2.81818H1.09091V3.90909H0V2.81818ZM0 1.72727H1.09091V2.81818H0V1.72727ZM0 0.636364H1.09091V1.72727H0V0.636364ZM1.09091 0.636364H2.18182V1.72727H1.09091V0.636364ZM2.18182 1.72727H3.27273V2.81818H2.18182V1.72727ZM2.18182 2.81818H3.27273V3.90909H2.18182V2.81818ZM2.18182 3.90909H3.27273V5H2.18182V3.90909ZM3.27273 0.636364H4.36364V1.72727H3.27273V0.636364ZM4.36364 1.72727H5.45455V2.81818H4.36364V1.72727ZM4.36364 2.81818H5.45455V3.90909H4.36364V2.81818ZM4.36364 3.90909H5.45455V5H4.36364V3.90909Z" fill="#FF7272"/>
</svg>
