<svg width="32" height="50" viewBox="0 0 32 50" fill="none" xmlns="http://www.w3.org/2000/svg">
<path d="M17.2992 16.5928L11.6629 27.7265L29.6647 32.5562C30.5261 32.7873 30.6078 33.9979 29.7912 34.4303L3.06887 48.5799C2.20951 49.035 1.33159 48.1343 1.77695 47.2546L11.6629 27.7265L3.04391 25.4141C2.16489 25.1782 2.1041 23.932 2.95164 23.5226L17.2992 16.5928Z" fill="#FFA0A0"/>
<path d="M25.3627 0.664728L1.77695 47.2546C1.33159 48.1343 2.20951 49.035 3.06887 48.5799L29.7912 34.4303C30.6078 33.9979 30.5261 32.7873 29.6647 32.5562L3.04391 25.4141C2.16489 25.1782 2.1041 23.932 2.95164 23.5226L30.0409 10.4387" stroke="#FF4A4A" stroke-width="2"/>
</svg>
