<svg width="115" height="50" viewBox="0 0 115 50" fill="none" xmlns="http://www.w3.org/2000/svg">
<path d="M58.96 24.28C58.6133 24.7333 58.2 24.9867 57.72 25.04C57.2667 25.0667 56.8667 24.9733 56.52 24.76C56.2 24.52 55.9867 24.2 55.88 23.8C55.8 23.3733 55.9333 22.9333 56.28 22.48L65.16 11.2C65.5333 10.72 65.9467 10.4533 66.4 10.4C66.88 10.3467 67.2933 10.44 67.64 10.68C67.9867 10.8933 68.2 11.2133 68.28 11.64C68.36 12.0667 68.2133 12.52 67.84 13L64.36 17.44L72.96 19.04C73.5467 19.1467 73.96 19.4 74.2 19.8C74.44 20.1733 74.52 20.56 74.44 20.96C74.36 21.3333 74.1467 21.6533 73.8 21.92C73.4533 22.16 73 22.2267 72.44 22.12L62.24 20.08L58.96 24.28ZM73.48 26.96C73.9333 26.9333 74.2667 27.08 74.48 27.4C74.72 27.72 74.84 28.08 74.84 28.48C74.8667 28.8533 74.76 29.2133 74.52 29.56C74.3067 29.88 73.96 30.0533 73.48 30.08L57.04 30.96C56.64 30.9867 56.3333 30.84 56.12 30.52C55.9333 30.2 55.8267 29.8533 55.8 29.48C55.8 29.08 55.8933 28.7067 56.08 28.36C56.2933 28.0133 56.6133 27.8267 57.04 27.8L60.2 27.64L60 24.4C59.9733 23.8933 60.1333 23.52 60.48 23.28C60.8267 23.0133 61.2 22.88 61.6 22.88C62.0267 22.88 62.4267 23.0133 62.8 23.28C63.1733 23.52 63.3733 23.8933 63.4 24.4L63.6 27.48L66.92 27.32L66.72 24.4C66.6933 23.8933 66.8533 23.52 67.2 23.28C67.5467 23.0133 67.92 22.88 68.32 22.88C68.7467 22.88 69.1467 23.0133 69.52 23.28C69.8933 23.52 70.0933 23.8933 70.12 24.4L70.28 27.12L73.48 26.96ZM65.84 46.44C64.9333 46.44 64.0667 46.28 63.24 45.96C62.44 45.6667 61.7333 45.2533 61.12 44.72C60.5333 44.1867 60.0533 43.5333 59.68 42.76C59.3333 42.0133 59.16 41.2 59.16 40.32C59.16 39.36 59.3333 38.4533 59.68 37.6C60.0533 36.72 60.56 35.96 61.2 35.32C61.84 34.68 62.5867 34.1733 63.44 33.8C64.32 33.4267 65.2667 33.24 66.28 33.24C67.1867 33.24 68.04 33.3867 68.84 33.68C69.6667 33.9733 70.3733 34.4 70.96 34.96C71.5733 35.4933 72.0533 36.1333 72.4 36.88C72.7467 37.6267 72.92 38.4533 72.92 39.36C72.92 40.3467 72.7333 41.2667 72.36 42.12C72.0133 42.9733 71.52 43.72 70.88 44.36C70.2667 45 69.52 45.5067 68.64 45.88C67.7867 46.2533 66.8533 46.44 65.84 46.44ZM66.28 36.2C65.72 36.2 65.2 36.3067 64.72 36.52C64.2667 36.7333 63.8667 37.0267 63.52 37.4C63.2 37.7733 62.9467 38.2133 62.76 38.72C62.5733 39.2 62.48 39.72 62.48 40.28C62.48 41.2133 62.7867 41.9733 63.4 42.56C64.04 43.1733 64.8533 43.48 65.84 43.48C67.2 43.4533 68.1733 43.0533 68.76 42.28C69.3467 41.5067 69.64 40.5467 69.64 39.4C69.64 38.52 69.3333 37.7867 68.72 37.2C68.1333 36.5867 67.32 36.2533 66.28 36.2ZM82.9631 19.92C84.6431 19.8933 86.1098 19.8667 87.3631 19.84C88.6165 19.8133 89.8965 19.7867 91.2031 19.76C91.7098 19.7333 92.0965 19.88 92.3631 20.2C92.6298 20.52 92.7765 20.8533 92.8031 21.2C92.8031 21.6267 92.6965 22 92.4831 22.32C92.2698 22.6133 91.9498 22.76 91.5231 22.76C90.2965 22.8133 89.0431 22.8667 87.7631 22.92C86.5098 22.9733 85.0431 23 83.3631 23C82.6165 23 82.2565 23.3333 82.2831 24L82.5631 33.24C82.5631 33.9067 82.9231 34.3467 83.6431 34.56C84.3365 34.72 85.0565 34.8667 85.8031 35C86.5498 35.1067 87.2565 35.2133 87.9231 35.32C88.6165 35.4 89.2431 35.4667 89.8031 35.52C90.3631 35.5733 90.8031 35.6 91.1231 35.6C91.6565 35.6 92.0565 35.76 92.3231 36.08C92.5898 36.4 92.7231 36.76 92.7231 37.16C92.7231 37.56 92.5898 37.92 92.3231 38.24C92.0565 38.56 91.6565 38.72 91.1231 38.72C90.6431 38.72 90.0031 38.68 89.2031 38.6C88.4031 38.52 87.5365 38.4133 86.6031 38.28C85.6965 38.1467 84.7765 37.9867 83.8431 37.8C82.9365 37.6133 82.1231 37.4133 81.4031 37.2C80.7098 36.9867 80.1765 36.5867 79.8031 36C79.4298 35.3867 79.2298 34.6533 79.2031 33.8L78.8031 23.44C78.7498 22.1867 79.0831 21.2933 79.8031 20.76C80.5231 20.2 81.5765 19.92 82.9631 19.92ZM97.7631 18.44C97.7365 17.9333 97.8831 17.56 98.2031 17.32C98.5231 17.0533 98.8831 16.92 99.2831 16.92C99.6831 16.92 100.056 17.0533 100.403 17.32C100.776 17.56 100.976 17.9333 101.003 18.44C101.11 19.64 101.216 21.16 101.323 23C101.456 24.84 101.576 26.7333 101.683 28.68C101.79 30.6267 101.896 32.4667 102.003 34.2C102.11 35.9333 102.19 37.2933 102.243 38.28C102.27 38.7867 102.123 39.1733 101.803 39.44C101.483 39.7067 101.123 39.84 100.723 39.84C100.323 39.84 99.9365 39.7067 99.5631 39.44C99.2165 39.1733 99.0298 38.7867 99.0031 38.28C98.9765 37.64 98.9231 36.8267 98.8431 35.84C98.7898 34.8267 98.7231 33.72 98.6431 32.52C98.5898 31.32 98.5231 30.0667 98.4431 28.76C98.3631 27.4267 98.2698 26.1333 98.1631 24.88C98.0831 23.6267 98.0031 22.44 97.9231 21.32C97.8698 20.2 97.8165 19.24 97.7631 18.44Z" fill="black"/>
<path d="M25.2992 16.5928L19.6629 27.7265L37.6647 32.5562C38.5261 32.7873 38.6078 33.9979 37.7912 34.4303L11.0689 48.5799C10.2095 49.035 9.33159 48.1343 9.77695 47.2546L19.6629 27.7265L11.0439 25.4141C10.1649 25.1782 10.1041 23.932 10.9516 23.5226L25.2992 16.5928Z" fill="#FFA0A0"/>
<path d="M33.3627 0.664728L9.77695 47.2546C9.33159 48.1343 10.2095 49.035 11.0689 48.5799L37.7912 34.4303C38.6078 33.9979 38.5261 32.7873 37.6647 32.5562L11.0439 25.4141C10.1649 25.1782 10.1041 23.932 10.9516 23.5226L38.0409 10.4387" stroke="#FF4A4A" stroke-width="2"/>
</svg>
