<svg width="23" height="7" viewBox="0 0 23 7" fill="none" xmlns="http://www.w3.org/2000/svg">
<path d="M2.22222 0.777778H2.66667V1.22222H2.22222V0.777778ZM2.22222 1.22222H2.66667V1.66667H2.22222V1.22222ZM1.77778 1.22222H2.22222V1.66667H1.77778V1.22222ZM2.22222 1.66667H2.66667V2.11111H2.22222V1.66667ZM1.77778 1.66667H2.22222V2.11111H1.77778V1.66667ZM1.33333 1.66667H1.77778V2.11111H1.33333V1.66667ZM1.33333 2.11111H1.77778V2.55556H1.33333V2.11111ZM1.77778 2.11111H2.22222V2.55556H1.77778V2.11111ZM2.22222 2.11111H2.66667V2.55556H2.22222V2.11111ZM2.22222 2.55556H2.66667V3H2.22222V2.55556ZM1.77778 2.55556H2.22222V3H1.77778V2.55556ZM1.33333 2.55556H1.77778V3H1.33333V2.55556ZM0.888889 2.55556H1.33333V3H0.888889V2.55556ZM0.444444 2.55556H0.888889V3H0.444444V2.55556ZM0.444444 3H0.888889V3.44444H0.444444V3ZM0.888889 3H1.33333V3.44444H0.888889V3ZM1.33333 3H1.77778V3.44444H1.33333V3ZM1.77778 3H2.22222V3.44444H1.77778V3ZM2.22222 3H2.66667V3.44444H2.22222V3ZM2.66667 3H3.11111V3.44444H2.66667V3ZM3.11111 3H3.55556V3.44444H3.11111V3ZM3.55556 3H4V3.44444H3.55556V3ZM3.55556 2.55556H4V3H3.55556V2.55556ZM3.11111 2.55556H3.55556V3H3.11111V2.55556ZM2.66667 2.55556H3.11111V3H2.66667V2.55556ZM1.33333 3.44444H1.77778V3.88889H1.33333V3.44444ZM1.77778 3.44444H2.22222V3.88889H1.77778V3.44444ZM2.22222 3.44444H2.66667V3.88889H2.22222V3.44444ZM2.22222 3.88889H2.66667V4.33333H2.22222V3.88889ZM2.22222 4.33333H2.66667V4.77778H2.22222V4.33333ZM2.22222 4.77778H2.66667V5.22222H2.22222V4.77778ZM2.22222 5.22222H2.66667V5.66667H2.22222V5.22222ZM1.77778 5.22222H2.22222V5.66667H1.77778V5.22222ZM1.77778 4.77778H2.22222V5.22222H1.77778V4.77778ZM1.77778 4.33333H2.22222V4.77778H1.77778V4.33333ZM1.77778 3.88889H2.22222V4.33333H1.77778V3.88889ZM1.33333 3.88889H1.77778V4.33333H1.33333V3.88889ZM1.33333 4.33333H1.77778V4.77778H1.33333V4.33333ZM1.33333 4.77778H1.77778V5.22222H1.33333V4.77778ZM1.33333 5.22222H1.77778V5.66667H1.33333V5.22222ZM1.33333 5.66667H1.77778V6.11111H1.33333V5.66667ZM1.77778 5.66667H2.22222V6.11111H1.77778V5.66667ZM2.22222 5.66667H2.66667V6.11111H2.22222V5.66667ZM2.66667 5.66667H3.11111V6.11111H2.66667V5.66667ZM2.66667 6.11111H3.11111V6.55556H2.66667V6.11111ZM2.22222 6.11111H2.66667V6.55556H2.22222V6.11111ZM1.77778 6.11111H2.22222V6.55556H1.77778V6.11111ZM3.11111 6.11111H3.55556V6.55556H3.11111V6.11111ZM3.55556 6.11111H4V6.55556H3.55556V6.11111ZM3.55556 6.55556H4V7H3.55556V6.55556ZM3.11111 6.55556H3.55556V7H3.11111V6.55556ZM2.66667 6.55556H3.11111V7H2.66667V6.55556ZM2.22222 6.55556H2.66667V7H2.22222V6.55556ZM5.77474 2.11111H6.21918V2.55556H5.77474V2.11111ZM6.21918 2.11111H6.66363V2.55556H6.21918V2.11111ZM6.66363 2.11111H7.10807V2.55556H6.66363V2.11111ZM7.10807 2.11111H7.55252V2.55556H7.10807V2.11111ZM7.55252 2.11111H7.99696V2.55556H7.55252V2.11111ZM7.99696 2.11111H8.44141V2.55556H7.99696V2.11111ZM8.44141 2.55556H8.88585V3H8.44141V2.55556ZM7.99696 2.55556H8.44141V3H7.99696V2.55556ZM7.55252 2.55556H7.99696V3H7.55252V2.55556ZM7.10807 2.55556H7.55252V3H7.10807V2.55556ZM6.66363 2.55556H7.10807V3H6.66363V2.55556ZM6.21918 2.55556H6.66363V3H6.21918V2.55556ZM5.77474 2.55556H6.21918V3H5.77474V2.55556ZM5.3303 2.55556H5.77474V3H5.3303V2.55556ZM5.3303 3H5.77474V3.44444H5.3303V3ZM5.77474 3H6.21918V3.44444H5.77474V3ZM4.88585 3H5.3303V3.44444H4.88585V3ZM4.88585 3.44444H5.3303V3.88889H4.88585V3.44444ZM4.88585 3.88889H5.3303V4.33333H4.88585V3.88889ZM5.3303 3.88889H5.77474V4.33333H5.3303V3.88889ZM5.77474 3.88889H6.21918V4.33333H5.77474V3.88889ZM5.77474 3.44444H6.21918V3.88889H5.77474V3.44444ZM5.3303 3.44444H5.77474V3.88889H5.3303V3.44444ZM5.3303 4.33333H5.77474V4.77778H5.3303V4.33333ZM5.3303 4.77778H5.77474V5.22222H5.3303V4.77778ZM5.3303 5.22222H5.77474V5.66667H5.3303V5.22222ZM4.88585 5.22222H5.3303V5.66667H4.88585V5.22222ZM4.88585 5.66667H5.3303V6.11111H4.88585V5.66667ZM4.88585 4.77778H5.3303V5.22222H4.88585V4.77778ZM4.88585 4.33333H5.3303V4.77778H4.88585V4.33333ZM5.77474 4.33333H6.21918V4.77778H5.77474V4.33333ZM5.77474 4.77778H6.21918V5.22222H5.77474V4.77778ZM5.77474 5.22222H6.21918V5.66667H5.77474V5.22222ZM5.77474 5.66667H6.21918V6.11111H5.77474V5.66667ZM5.3303 5.66667H5.77474V6.11111H5.3303V5.66667ZM5.3303 6.11111H5.77474V6.55556H5.3303V6.11111ZM5.77474 6.11111H6.21918V6.55556H5.77474V6.11111ZM6.21918 6.11111H6.66363V6.55556H6.21918V6.11111ZM6.21918 5.66667H6.66363V6.11111H6.21918V5.66667ZM5.77474 6.55556H6.21918V7H5.77474V6.55556ZM6.21918 6.55556H6.66363V7H6.21918V6.55556ZM6.66363 6.55556H7.10807V7H6.66363V6.55556ZM7.10807 6.55556H7.55252V7H7.10807V6.55556ZM7.55252 6.55556H7.99696V7H7.55252V6.55556ZM7.99696 6.55556H8.44141V7H7.99696V6.55556ZM7.55252 6.11111H7.99696V6.55556H7.55252V6.11111ZM7.10807 6.11111H7.55252V6.55556H7.10807V6.11111ZM6.66363 6.11111H7.10807V6.55556H6.66363V6.11111ZM7.99696 6.11111H8.44141V6.55556H7.99696V6.11111ZM8.44141 6.11111H8.88585V6.55556H8.44141V6.11111ZM7.99696 5.66667H8.44141V6.11111H7.99696V5.66667ZM7.55252 5.66667H7.99696V6.11111H7.55252V5.66667ZM8.44141 5.66667H8.88585V6.11111H8.44141V5.66667ZM8.88585 5.66667H9.3303V6.11111H8.88585V5.66667ZM8.88585 5.22222H9.3303V5.66667H8.88585V5.22222ZM8.44141 4.77778H8.88585V5.22222H8.44141V4.77778ZM8.44141 5.22222H8.88585V5.66667H8.44141V5.22222ZM7.99696 5.22222H8.44141V5.66667H7.99696V5.22222ZM8.88585 4.77778H9.3303V5.22222H8.88585V4.77778ZM8.88585 4.33333H9.3303V4.77778H8.88585V4.33333ZM8.44141 4.33333H8.88585V4.77778H8.44141V4.33333ZM8.44141 3.88889H8.88585V4.33333H8.44141V3.88889ZM8.44141 3.44444H8.88585V3.88889H8.44141V3.44444ZM8.88585 3.44444H9.3303V3.88889H8.88585V3.44444ZM8.88585 3H9.3303V3.44444H8.88585V3ZM8.88585 3.88889H9.3303V4.33333H8.88585V3.88889ZM7.99696 4.33333H8.44141V4.77778H7.99696V4.33333ZM7.99696 4.77778H8.44141V5.22222H7.99696V4.77778ZM7.99696 3.88889H8.44141V4.33333H7.99696V3.88889ZM7.99696 3.44444H8.44141V3.88889H7.99696V3.44444ZM7.99696 3H8.44141V3.44444H7.99696V3ZM7.55252 3H7.99696V3.44444H7.55252V3ZM8.44141 3H8.88585V3.44444H8.44141V3ZM6.21918 3H6.66363V3.44444H6.21918V3ZM6.66363 3H7.10807V3.44444H6.66363V3ZM7.10807 3H7.55252V3.44444H7.10807V3ZM6.66363 5.66667H7.10807V6.11111H6.66363V5.66667ZM7.10807 5.66667H7.55252V6.11111H7.10807V5.66667ZM11.1068 2.11111H11.5512V2.55556H11.1068V2.11111ZM10.6623 2.55556H11.1068V3H10.6623V2.55556ZM10.6623 3H11.1068V3.44444H10.6623V3ZM10.2179 2.55556H10.6623V3H10.2179V2.55556ZM10.2179 2.11111H10.6623V2.55556H10.2179V2.11111ZM10.6623 2.11111H11.1068V2.55556H10.6623V2.11111ZM10.6623 3.44444H11.1068V3.88889H10.6623V3.44444ZM10.2179 3.44444H10.6623V3.88889H10.2179V3.44444ZM10.2179 3.88889H10.6623V4.33333H10.2179V3.88889ZM10.2179 3H10.6623V3.44444H10.2179V3ZM10.2179 4.33333H10.6623V4.77778H10.2179V4.33333ZM10.2179 4.77778H10.6623V5.22222H10.2179V4.77778ZM10.2179 5.22222H10.6623V5.66667H10.2179V5.22222ZM10.2179 5.66667H10.6623V6.11111H10.2179V5.66667ZM10.2179 6.11111H10.6623V6.55556H10.2179V6.11111ZM10.6623 6.11111H11.1068V6.55556H10.6623V6.11111ZM11.1068 6.11111H11.5512V6.55556H11.1068V6.11111ZM11.1068 6.55556H11.5512V7H11.1068V6.55556ZM10.6623 6.55556H11.1068V7H10.6623V6.55556ZM10.2179 6.55556H10.6623V7H10.2179V6.55556ZM11.1068 5.66667H11.5512V6.11111H11.1068V5.66667ZM11.1068 5.22222H11.5512V5.66667H11.1068V5.22222ZM11.1068 4.77778H11.5512V5.22222H11.1068V4.77778ZM11.1068 4.33333H11.5512V4.77778H11.1068V4.33333ZM11.1068 3.88889H11.5512V4.33333H11.1068V3.88889ZM11.1068 3.44444H11.5512V3.88889H11.1068V3.44444ZM11.1068 3H11.5512V3.44444H11.1068V3ZM11.1068 2.55556H11.5512V3H11.1068V2.55556ZM10.6623 3.88889H11.1068V4.33333H10.6623V3.88889ZM10.6623 4.77778H11.1068V5.22222H10.6623V4.77778ZM10.6623 5.22222H11.1068V5.66667H10.6623V5.22222ZM10.6623 5.66667H11.1068V6.11111H10.6623V5.66667ZM10.6623 4.33333H11.1068V4.77778H10.6623V4.33333ZM12.8845 6.55556H13.329V7H12.8845V6.55556ZM13.329 6.55556H13.7734V7H13.329V6.55556ZM13.329 6.11111H13.7734V6.55556H13.329V6.11111ZM13.329 5.66667H13.7734V6.11111H13.329V5.66667ZM13.329 5.22222H13.7734V5.66667H13.329V5.22222ZM13.7734 5.22222H14.2179V5.66667H13.7734V5.22222ZM13.7734 4.77778H14.2179V5.22222H13.7734V4.77778ZM13.7734 5.66667H14.2179V6.11111H13.7734V5.66667ZM13.7734 6.11111H14.2179V6.55556H13.7734V6.11111ZM13.7734 6.55556H14.2179V7H13.7734V6.55556ZM12.8845 6.11111H13.329V6.55556H12.8845V6.11111ZM12.8845 5.66667H13.329V6.11111H12.8845V5.66667ZM12.8845 5.22222H13.329V5.66667H12.8845V5.22222ZM12.8845 4.77778H13.329V5.22222H12.8845V4.77778ZM12.8845 4.33333H13.329V4.77778H12.8845V4.33333ZM12.8845 3.88889H13.329V4.33333H12.8845V3.88889ZM12.8845 3.44444H13.329V3.88889H12.8845V3.44444ZM12.8845 3H13.329V3.44444H12.8845V3ZM12.8845 2.55556H13.329V3H12.8845V2.55556ZM12.4401 2.55556H12.8845V3H12.4401V2.55556ZM13.329 3H13.7734V3.44444H13.329V3ZM13.329 3.44444H13.7734V3.88889H13.329V3.44444ZM13.329 3.88889H13.7734V4.33333H13.329V3.88889ZM13.329 4.33333H13.7734V4.77778H13.329V4.33333ZM13.329 4.77778H13.7734V5.22222H13.329V4.77778ZM13.7734 4.33333H14.2179V4.77778H13.7734V4.33333ZM13.7734 3.88889H14.2179V4.33333H13.7734V3.88889ZM13.7734 3.44444H14.2179V3.88889H13.7734V3.44444ZM13.7734 3H14.2179V3.44444H13.7734V3ZM13.329 2.55556H13.7734V3H13.329V2.55556ZM12.8845 2.11111H13.329V2.55556H12.8845V2.11111ZM12.4401 2.11111H12.8845V2.55556H12.4401V2.11111ZM11.9957 2.11111H12.4401V2.55556H11.9957V2.11111ZM11.9957 2.55556H12.4401V3H11.9957V2.55556ZM11.5512 2.55556H11.9957V3H11.5512V2.55556ZM11.5512 3H11.9957V3.44444H11.5512V3ZM11.9957 3H12.4401V3.44444H11.9957V3ZM12.4401 3H12.8845V3.44444H12.4401V3ZM11.5512 3.44444H11.9957V3.88889H11.5512V3.44444ZM15.5512 6.55556H15.9957V7H15.5512V6.55556ZM15.9957 6.55556H16.4401V7H15.9957V6.55556ZM15.9957 6.11111H16.4401V6.55556H15.9957V6.11111ZM15.9957 5.66667H16.4401V6.11111H15.9957V5.66667ZM15.9957 5.22222H16.4401V5.66667H15.9957V5.22222ZM16.4401 5.22222H16.8845V5.66667H16.4401V5.22222ZM16.4401 4.77778H16.8845V5.22222H16.4401V4.77778ZM16.4401 5.66667H16.8845V6.11111H16.4401V5.66667ZM16.4401 6.11111H16.8845V6.55556H16.4401V6.11111ZM16.4401 6.55556H16.8845V7H16.4401V6.55556ZM15.5512 6.11111H15.9957V6.55556H15.5512V6.11111ZM15.5512 5.66667H15.9957V6.11111H15.5512V5.66667ZM15.5512 5.22222H15.9957V5.66667H15.5512V5.22222ZM15.5512 4.77778H15.9957V5.22222H15.5512V4.77778ZM15.5512 4.33333H15.9957V4.77778H15.5512V4.33333ZM15.5512 3.88889H15.9957V4.33333H15.5512V3.88889ZM15.5512 3.44444H15.9957V3.88889H15.5512V3.44444ZM15.5512 3H15.9957V3.44444H15.5512V3ZM15.5512 2.55556H15.9957V3H15.5512V2.55556ZM15.1068 2.55556H15.5512V3H15.1068V2.55556ZM15.9957 3H16.4401V3.44444H15.9957V3ZM15.9957 3.44444H16.4401V3.88889H15.9957V3.44444ZM15.9957 3.88889H16.4401V4.33333H15.9957V3.88889ZM15.9957 4.33333H16.4401V4.77778H15.9957V4.33333ZM15.9957 4.77778H16.4401V5.22222H15.9957V4.77778ZM16.4401 4.33333H16.8845V4.77778H16.4401V4.33333ZM16.4401 3.88889H16.8845V4.33333H16.4401V3.88889ZM16.4401 3.44444H16.8845V3.88889H16.4401V3.44444ZM16.4401 3H16.8845V3.44444H16.4401V3ZM15.9957 2.55556H16.4401V3H15.9957V2.55556ZM15.5512 2.11111H15.9957V2.55556H15.5512V2.11111ZM15.1068 2.11111H15.5512V2.55556H15.1068V2.11111ZM14.6623 2.11111H15.1068V2.55556H14.6623V2.11111ZM14.6623 2.55556H15.1068V3H14.6623V2.55556ZM14.2179 2.55556H14.6623V3H14.2179V2.55556ZM14.2179 3H14.6623V3.44444H14.2179V3ZM14.6623 3H15.1068V3.44444H14.6623V3ZM15.1068 3H15.5512V3.44444H15.1068V3ZM14.2179 3.44444H14.6623V3.88889H14.2179V3.44444ZM18.6654 2.11111H19.1098V2.55556H18.6654V2.11111ZM19.1098 2.11111H19.5543V2.55556H19.1098V2.11111ZM19.5543 2.11111H19.9987V2.55556H19.5543V2.11111ZM19.9987 2.11111H20.4431V2.55556H19.9987V2.11111ZM20.4431 2.11111H20.8876V2.55556H20.4431V2.11111ZM20.8876 2.11111H21.332V2.55556H20.8876V2.11111ZM21.332 2.55556H21.7765V3H21.332V2.55556ZM20.8876 2.55556H21.332V3H20.8876V2.55556ZM20.4431 2.55556H20.8876V3H20.4431V2.55556ZM19.9987 2.55556H20.4431V3H19.9987V2.55556ZM19.5543 2.55556H19.9987V3H19.5543V2.55556ZM19.1098 2.55556H19.5543V3H19.1098V2.55556ZM18.6654 2.55556H19.1098V3H18.6654V2.55556ZM18.2209 2.55556H18.6654V3H18.2209V2.55556ZM18.2209 3H18.6654V3.44444H18.2209V3ZM18.6654 3H19.1098V3.44444H18.6654V3ZM17.7765 3H18.2209V3.44444H17.7765V3ZM17.7765 3.44444H18.2209V3.88889H17.7765V3.44444ZM17.7765 3.88889H18.2209V4.33333H17.7765V3.88889ZM18.2209 3.88889H18.6654V4.33333H18.2209V3.88889ZM18.6654 3.88889H19.1098V4.33333H18.6654V3.88889ZM18.6654 3.44444H19.1098V3.88889H18.6654V3.44444ZM18.2209 3.44444H18.6654V3.88889H18.2209V3.44444ZM18.2209 4.33333H18.6654V4.77778H18.2209V4.33333ZM18.2209 4.77778H18.6654V5.22222H18.2209V4.77778ZM18.2209 5.22222H18.6654V5.66667H18.2209V5.22222ZM17.7765 5.22222H18.2209V5.66667H17.7765V5.22222ZM17.7765 5.66667H18.2209V6.11111H17.7765V5.66667ZM17.7765 4.77778H18.2209V5.22222H17.7765V4.77778ZM17.7765 4.33333H18.2209V4.77778H17.7765V4.33333ZM18.6654 4.33333H19.1098V4.77778H18.6654V4.33333ZM18.6654 4.77778H19.1098V5.22222H18.6654V4.77778ZM18.6654 5.22222H19.1098V5.66667H18.6654V5.22222ZM18.6654 5.66667H19.1098V6.11111H18.6654V5.66667ZM18.2209 5.66667H18.6654V6.11111H18.2209V5.66667ZM18.2209 6.11111H18.6654V6.55556H18.2209V6.11111ZM18.6654 6.11111H19.1098V6.55556H18.6654V6.11111ZM19.1098 6.11111H19.5543V6.55556H19.1098V6.11111ZM19.1098 5.66667H19.5543V6.11111H19.1098V5.66667ZM18.6654 6.55556H19.1098V7H18.6654V6.55556ZM19.1098 6.55556H19.5543V7H19.1098V6.55556ZM19.5543 6.55556H19.9987V7H19.5543V6.55556ZM19.9987 6.55556H20.4431V7H19.9987V6.55556ZM20.4431 6.55556H20.8876V7H20.4431V6.55556ZM20.8876 6.55556H21.332V7H20.8876V6.55556ZM20.4431 6.11111H20.8876V6.55556H20.4431V6.11111ZM19.9987 6.11111H20.4431V6.55556H19.9987V6.11111ZM19.5543 6.11111H19.9987V6.55556H19.5543V6.11111ZM20.8876 6.11111H21.332V6.55556H20.8876V6.11111ZM21.332 6.11111H21.7765V6.55556H21.332V6.11111ZM20.8876 5.66667H21.332V6.11111H20.8876V5.66667ZM20.4431 5.66667H20.8876V6.11111H20.4431V5.66667ZM21.332 5.66667H21.7765V6.11111H21.332V5.66667ZM21.7765 5.66667H22.2209V6.11111H21.7765V5.66667ZM21.7765 5.22222H22.2209V5.66667H21.7765V5.22222ZM21.332 4.77778H21.7765V5.22222H21.332V4.77778ZM21.332 5.22222H21.7765V5.66667H21.332V5.22222ZM20.8876 5.22222H21.332V5.66667H20.8876V5.22222ZM21.7765 4.77778H22.2209V5.22222H21.7765V4.77778ZM21.7765 4.33333H22.2209V4.77778H21.7765V4.33333ZM21.332 4.33333H21.7765V4.77778H21.332V4.33333ZM21.332 3.88889H21.7765V4.33333H21.332V3.88889ZM21.332 3.44444H21.7765V3.88889H21.332V3.44444ZM21.7765 3.44444H22.2209V3.88889H21.7765V3.44444ZM21.7765 3H22.2209V3.44444H21.7765V3ZM21.7765 3.88889H22.2209V4.33333H21.7765V3.88889ZM20.8876 4.33333H21.332V4.77778H20.8876V4.33333ZM20.8876 4.77778H21.332V5.22222H20.8876V4.77778ZM20.8876 3.88889H21.332V4.33333H20.8876V3.88889ZM20.8876 3.44444H21.332V3.88889H20.8876V3.44444ZM20.8876 3H21.332V3.44444H20.8876V3ZM20.4431 3H20.8876V3.44444H20.4431V3ZM21.332 3H21.7765V3.44444H21.332V3ZM19.1098 3H19.5543V3.44444H19.1098V3ZM19.5543 3H19.9987V3.44444H19.5543V3ZM19.9987 3H20.4431V3.44444H19.9987V3ZM19.5543 5.66667H19.9987V6.11111H19.5543V5.66667ZM19.9987 5.66667H20.4431V6.11111H19.9987V5.66667Z" fill="url(#paint0_linear_1_2)"/>
<defs>
<linearGradient id="paint0_linear_1_2" x1="11.5" y1="-2" x2="11.5" y2="10" gradientUnits="userSpaceOnUse">
<stop stop-color="#FF7272"/>
<stop offset="1" stop-color="#994444"/>
</linearGradient>
</defs>
</svg>
