<!-- <svg width="20" height="20" viewBox="0 0 7 8" fill="none" xmlns="http://www.w3.org/2000/svg">
<path d="M1.7 7.1C1.26 7.39333 0.9 7.46667 0.62 7.32C0.34 7.16 0.2 6.78 0.2 6.18C0.2 5.40667 0.653333 4.45333 1.56 3.32C2.46667 2.17333 3.27333 1.4 3.98 1C4.35333 0.8 4.60667 0.686666 4.74 0.659999C4.87333 0.62 5.14667 0.633333 5.56 0.7C6.38667 0.806666 6.78667 1.36 6.76 2.36C6.73333 2.89333 6.6 3.4 6.36 3.88C6.12 4.34667 5.79333 4.75333 5.38 5.1C4.96667 5.44667 4.52667 5.75333 4.06 6.02C3.60667 6.27333 3.10667 6.5 2.56 6.7C2.56 6.7 2.51333 6.72 2.42 6.76C2.34 6.78667 2.23333 6.83333 2.1 6.9C1.98 6.95333 1.84667 7.02 1.7 7.1ZM1.14 6.06C1.7 6.1 2.36 5.93333 3.12 5.56C3.89333 5.18667 4.56 4.7 5.12 4.1C5.68 3.5 5.93333 2.94 5.88 2.42C5.85333 2.18 5.80667 2.00667 5.74 1.9C5.68667 1.78 5.57333 1.72 5.4 1.72C5.21333 1.72 5 1.78667 4.76 1.92C4.53333 2.05333 4.25333 2.24 3.92 2.48C3.58667 2.72 3.39333 2.86 3.34 2.9C2.95333 3.15333 2.52667 3.62 2.06 4.3C1.59333 4.96667 1.28667 5.55333 1.14 6.06Z" fill="url(#paint0_linear_4_2)"/>
<defs>
<linearGradient id="paint0_linear_4_2" x1="3" y1="-9" x2="3" y2="11" gradientUnits="userSpaceOnUse">
<stop stop-color="#FF7272"/>
<stop offset="0.418333" stop-color="#E46666"/>
<stop offset="0.803333" stop-color="#CC5B5B"/>
<stop offset="1" stop-color="#994444"/>
</linearGradient>
</defs>
</svg> -->

<svg width="7" height="8" viewBox="0 0 7 8" fill="none" xmlns="http://www.w3.org/2000/svg">
<path d="M1.7 7.1C1.26 7.39333 0.9 7.46667 0.62 7.32C0.34 7.16 0.2 6.78 0.2 6.18C0.2 5.40667 0.653333 4.45333 1.56 3.32C2.46667 2.17333 3.27333 1.4 3.98 1C4.35333 0.8 4.60667 0.686666 4.74 0.659999C4.87333 0.62 5.14667 0.633333 5.56 0.7C6.38667 0.806666 6.78667 1.36 6.76 2.36C6.73333 2.89333 6.6 3.4 6.36 3.88C6.12 4.34667 5.79333 4.75333 5.38 5.1C4.96667 5.44667 4.52667 5.75333 4.06 6.02C3.60667 6.27333 3.10667 6.5 2.56 6.7C2.56 6.7 2.51333 6.72 2.42 6.76C2.34 6.78667 2.23333 6.83333 2.1 6.9C1.98 6.95333 1.84667 7.02 1.7 7.1ZM1.14 6.06C1.7 6.1 2.36 5.93333 3.12 5.56C3.89333 5.18667 4.56 4.7 5.12 4.1C5.68 3.5 5.93333 2.94 5.88 2.42C5.85333 2.18 5.80667 2.00667 5.74 1.9C5.68667 1.78 5.57333 1.72 5.4 1.72C5.21333 1.72 5 1.78667 4.76 1.92C4.53333 2.05333 4.25333 2.24 3.92 2.48C3.58667 2.72 3.39333 2.86 3.34 2.9C2.95333 3.15333 2.52667 3.62 2.06 4.3C1.59333 4.96667 1.28667 5.55333 1.14 6.06Z" fill="url(#paint0_linear_8_2)"/>
<defs>
<linearGradient id="paint0_linear_8_2" x1="3" y1="-9" x2="3" y2="11" gradientUnits="userSpaceOnUse">
<stop stop-color="#FF7272"/>
<stop offset="0.415" stop-color="#FAB4B4"/>
<stop offset="1" stop-color="#F5F5F5"/>
</linearGradient>
</defs>
</svg>
